<svg xmlns="http://www.w3.org/2000/svg" xmlns:xlink="http://www.w3.org/1999/xlink" width="140" zoomAndPan="magnify" viewBox="0 0 104.88 37.5" height="50" preserveAspectRatio="xMidYMid meet" version="1.0"><defs><g/></defs><g fill="#ffffff" fill-opacity="1"><g transform="translate(0.776306, 22.228504)"><g><path d="M 8.675781 -6.628906 C 8.84375 -6.96875 8.851562 -7.351562 8.738281 -7.675781 C 8.625 -7.996094 8.382812 -8.285156 8.03125 -8.433594 C 7.691406 -8.609375 7.308594 -8.625 6.96875 -8.519531 C 6.628906 -8.40625 6.34375 -8.164062 6.203125 -7.816406 L 4.53125 -3.746094 L 2.859375 -7.832031 C 2.683594 -8.171875 2.40625 -8.40625 2.074219 -8.519531 C 1.742188 -8.625 1.367188 -8.609375 1.019531 -8.433594 C 0.679688 -8.269531 0.445312 -7.980469 0.339844 -7.648438 C 0.234375 -7.320312 0.253906 -6.945312 0.425781 -6.59375 L 3.285156 -0.628906 C 3.527344 -0.164062 3.957031 0.121094 4.433594 0.128906 C 4.992188 0.191406 5.53125 -0.078125 5.8125 -0.636719 Z M 8.675781 -6.628906 "/></g></g></g><g fill="#ffffff" fill-opacity="1"><g transform="translate(9.851159, 22.228504)"><g><path d="M 8.503906 -8.5625 C 7.980469 -8.5625 7.613281 -8.222656 7.40625 -7.570312 L 7.398438 -7.542969 C 6.796875 -8.179688 5.949219 -8.554688 4.90625 -8.554688 C 3.71875 -8.554688 2.632812 -8.066406 1.839844 -7.273438 C 1.046875 -6.480469 0.558594 -5.402344 0.558594 -4.207031 C 0.558594 -3.015625 1.046875 -1.925781 1.839844 -1.140625 C 2.632812 -0.355469 3.71875 0.140625 4.90625 0.140625 C 5.933594 0.140625 6.761719 -0.226562 7.351562 -0.828125 L 7.40625 -0.695312 C 7.613281 -0.199219 7.945312 0.140625 8.46875 0.140625 C 8.992188 0.140625 9.253906 -0.148438 9.253906 -0.671875 L 9.253906 -7.816406 C 9.253906 -8.3125 9 -8.5625 8.503906 -8.5625 Z M 6.046875 -3.023438 C 5.757812 -2.710938 5.359375 -2.519531 4.90625 -2.519531 C 4.453125 -2.519531 4.050781 -2.710938 3.765625 -3.023438 C 3.476562 -3.328125 3.300781 -3.753906 3.300781 -4.207031 C 3.300781 -4.660156 3.476562 -5.089844 3.765625 -5.394531 C 4.050781 -5.699219 4.453125 -5.890625 4.90625 -5.890625 C 5.359375 -5.890625 5.757812 -5.699219 6.046875 -5.394531 C 6.332031 -5.089844 6.507812 -4.660156 6.507812 -4.207031 C 6.507812 -3.753906 6.332031 -3.328125 6.046875 -3.023438 Z M 6.046875 -3.023438 "/></g></g></g><g fill="#ffffff" fill-opacity="1"><g transform="translate(20.171413, 22.228504)"><g><path d="M 6.578125 -8.242188 C 6.117188 -8.46875 5.523438 -8.539062 5.042969 -8.53125 C 4.546875 -8.484375 4.09375 -8.320312 3.683594 -8.109375 C 3.34375 -7.9375 3.058594 -7.710938 2.8125 -7.484375 L 2.789062 -7.5625 C 2.550781 -8.269531 2.222656 -8.554688 1.699219 -8.554688 C 1.195312 -8.554688 0.941406 -8.304688 0.941406 -7.804688 L 0.941406 -1.238281 C 0.941406 -0.855469 1.089844 -0.515625 1.332031 -0.269531 C 1.578125 -0.015625 1.925781 0.128906 2.308594 0.128906 C 2.683594 0.128906 3.023438 -0.015625 3.277344 -0.269531 C 3.519531 -0.515625 3.675781 -0.855469 3.675781 -1.238281 L 3.675781 -4.320312 C 3.738281 -5.042969 4.023438 -5.621094 4.582031 -5.820312 C 4.800781 -5.878906 5.019531 -5.898438 5.234375 -5.871094 C 5.453125 -5.835938 5.671875 -5.820312 5.878906 -5.8125 C 6.332031 -5.8125 6.648438 -5.898438 6.925781 -6.117188 C 7.195312 -6.332031 7.386719 -6.683594 7.386719 -7.066406 C 7.386719 -7.632812 7.039062 -8.015625 6.578125 -8.242188 Z M 6.578125 -8.242188 "/></g></g></g><g fill="#ffffff" fill-opacity="1"><g transform="translate(27.931206, 22.228504)"><g><path d="M 0.871094 -10.882812 C 0.871094 -10.488281 1.027344 -10.140625 1.28125 -9.898438 C 1.523438 -9.652344 1.882812 -9.503906 2.273438 -9.503906 C 2.65625 -9.503906 3.015625 -9.652344 3.265625 -9.898438 C 3.519531 -10.140625 3.675781 -10.488281 3.675781 -10.882812 C 3.675781 -11.265625 3.519531 -11.613281 3.265625 -11.867188 C 3.015625 -12.109375 2.65625 -12.257812 2.273438 -12.257812 C 1.882812 -12.257812 1.523438 -12.109375 1.28125 -11.867188 C 1.027344 -11.613281 0.871094 -11.265625 0.871094 -10.882812 Z M 0.941406 -1.238281 C 0.941406 -0.855469 1.089844 -0.515625 1.332031 -0.269531 C 1.578125 -0.015625 1.917969 0.128906 2.300781 0.128906 C 2.683594 0.128906 3.023438 -0.015625 3.265625 -0.269531 C 3.511719 -0.515625 3.667969 -0.855469 3.667969 -1.238281 L 3.667969 -7.207031 C 3.667969 -7.589844 3.511719 -7.929688 3.265625 -8.171875 C 3.023438 -8.417969 2.683594 -8.574219 2.300781 -8.574219 C 1.917969 -8.574219 1.578125 -8.417969 1.332031 -8.171875 C 1.089844 -7.929688 0.941406 -7.589844 0.941406 -7.207031 Z M 0.941406 -1.238281 "/></g></g></g><g fill="#ffffff" fill-opacity="1"><g transform="translate(32.538315, 22.228504)"><g><path d="M 4.878906 0.128906 C 5.550781 0.128906 6.316406 0 6.910156 -0.261719 C 7.5 -0.523438 7.917969 -0.933594 7.910156 -1.488281 C 7.910156 -2.003906 7.578125 -2.328125 7.1875 -2.484375 C 6.796875 -2.640625 6.316406 -2.613281 6.003906 -2.464844 C 5.679688 -2.230469 5.304688 -2.089844 4.894531 -2.089844 C 4.488281 -2.089844 4.121094 -2.265625 3.84375 -2.527344 C 3.5625 -2.789062 3.363281 -3.128906 3.328125 -3.476562 L 8.007812 -3.476562 C 8.398438 -3.476562 8.710938 -3.519531 8.921875 -3.660156 C 9.128906 -3.796875 9.234375 -4.023438 9.234375 -4.398438 C 9.234375 -5.59375 8.746094 -6.640625 7.972656 -7.378906 C 7.195312 -8.109375 6.105469 -8.554688 4.914062 -8.554688 C 3.71875 -8.554688 2.621094 -8.078125 1.828125 -7.300781 C 1.027344 -6.527344 0.53125 -5.4375 0.53125 -4.207031 C 0.53125 -3.015625 1.019531 -1.925781 1.8125 -1.140625 C 2.605469 -0.355469 3.695312 0.128906 4.878906 0.128906 Z M 4.914062 -6.367188 C 5.269531 -6.367188 5.65625 -6.238281 5.941406 -6.003906 C 6.230469 -5.765625 6.445312 -5.445312 6.480469 -5.070312 L 3.292969 -5.070312 C 3.355469 -5.445312 3.5625 -5.765625 3.859375 -6.003906 C 4.15625 -6.238281 4.53125 -6.367188 4.914062 -6.367188 Z M 4.914062 -6.367188 "/></g></g></g><g fill="#ffffff" fill-opacity="1"><g transform="translate(42.301187, 22.228504)"><g><path d="M 6.300781 -8.101562 C 6.054688 -8.335938 5.722656 -8.484375 5.347656 -8.484375 L 4.816406 -8.484375 L 4.816406 -9.90625 C 4.816406 -10.289062 4.660156 -10.628906 4.417969 -10.871094 C 4.171875 -11.117188 3.832031 -11.273438 3.457031 -11.273438 C 3.066406 -11.273438 2.726562 -11.117188 2.484375 -10.871094 C 2.238281 -10.628906 2.089844 -10.289062 2.089844 -9.90625 L 2.089844 -8.484375 L 1.601562 -8.484375 C 1.21875 -8.484375 0.886719 -8.335938 0.652344 -8.101562 C 0.410156 -7.859375 0.269531 -7.527344 0.269531 -7.144531 C 0.269531 -6.785156 0.410156 -6.457031 0.652344 -6.210938 C 0.886719 -5.96875 1.21875 -5.820312 1.601562 -5.820312 L 2.089844 -5.820312 L 2.089844 -1.238281 C 2.089844 -0.855469 2.238281 -0.515625 2.484375 -0.269531 C 2.726562 -0.015625 3.066406 0.128906 3.457031 0.128906 C 3.832031 0.128906 4.171875 -0.015625 4.417969 -0.269531 C 4.660156 -0.515625 4.816406 -0.855469 4.816406 -1.238281 L 4.816406 -5.820312 L 5.347656 -5.820312 C 5.722656 -5.820312 6.054688 -5.96875 6.300781 -6.210938 C 6.535156 -6.457031 6.683594 -6.785156 6.683594 -7.144531 C 6.683594 -7.527344 6.535156 -7.859375 6.300781 -8.101562 Z M 6.300781 -8.101562 "/></g></g></g><g fill="#ffffff" fill-opacity="1"><g transform="translate(49.233613, 22.228504)"><g><path d="M 0.871094 -10.882812 C 0.871094 -10.488281 1.027344 -10.140625 1.28125 -9.898438 C 1.523438 -9.652344 1.882812 -9.503906 2.273438 -9.503906 C 2.65625 -9.503906 3.015625 -9.652344 3.265625 -9.898438 C 3.519531 -10.140625 3.675781 -10.488281 3.675781 -10.882812 C 3.675781 -11.265625 3.519531 -11.613281 3.265625 -11.867188 C 3.015625 -12.109375 2.65625 -12.257812 2.273438 -12.257812 C 1.882812 -12.257812 1.523438 -12.109375 1.28125 -11.867188 C 1.027344 -11.613281 0.871094 -11.265625 0.871094 -10.882812 Z M 0.941406 -1.238281 C 0.941406 -0.855469 1.089844 -0.515625 1.332031 -0.269531 C 1.578125 -0.015625 1.917969 0.128906 2.300781 0.128906 C 2.683594 0.128906 3.023438 -0.015625 3.265625 -0.269531 C 3.511719 -0.515625 3.667969 -0.855469 3.667969 -1.238281 L 3.667969 -7.207031 C 3.667969 -7.589844 3.511719 -7.929688 3.265625 -8.171875 C 3.023438 -8.417969 2.683594 -8.574219 2.300781 -8.574219 C 1.917969 -8.574219 1.578125 -8.417969 1.332031 -8.171875 C 1.089844 -7.929688 0.941406 -7.589844 0.941406 -7.207031 Z M 0.941406 -1.238281 "/></g></g></g><g fill="#ffffff" fill-opacity="1"><g transform="translate(53.840721, 22.228504)"><g><path d="M 4.878906 0.128906 C 5.550781 0.128906 6.316406 0 6.910156 -0.261719 C 7.5 -0.523438 7.917969 -0.933594 7.910156 -1.488281 C 7.910156 -2.003906 7.578125 -2.328125 7.1875 -2.484375 C 6.796875 -2.640625 6.316406 -2.613281 6.003906 -2.464844 C 5.679688 -2.230469 5.304688 -2.089844 4.894531 -2.089844 C 4.488281 -2.089844 4.121094 -2.265625 3.84375 -2.527344 C 3.5625 -2.789062 3.363281 -3.128906 3.328125 -3.476562 L 8.007812 -3.476562 C 8.398438 -3.476562 8.710938 -3.519531 8.921875 -3.660156 C 9.128906 -3.796875 9.234375 -4.023438 9.234375 -4.398438 C 9.234375 -5.59375 8.746094 -6.640625 7.972656 -7.378906 C 7.195312 -8.109375 6.105469 -8.554688 4.914062 -8.554688 C 3.71875 -8.554688 2.621094 -8.078125 1.828125 -7.300781 C 1.027344 -6.527344 0.53125 -5.4375 0.53125 -4.207031 C 0.53125 -3.015625 1.019531 -1.925781 1.8125 -1.140625 C 2.605469 -0.355469 3.695312 0.128906 4.878906 0.128906 Z M 4.914062 -6.367188 C 5.269531 -6.367188 5.65625 -6.238281 5.941406 -6.003906 C 6.230469 -5.765625 6.445312 -5.445312 6.480469 -5.070312 L 3.292969 -5.070312 C 3.355469 -5.445312 3.5625 -5.765625 3.859375 -6.003906 C 4.15625 -6.238281 4.53125 -6.367188 4.914062 -6.367188 Z M 4.914062 -6.367188 "/></g></g></g><g fill="#ffffff" fill-opacity="1"><g transform="translate(63.603594, 22.228504)"><g><path d="M 4.390625 0.128906 C 5.375 0.128906 6.359375 -0.0429688 7.09375 -0.445312 C 7.824219 -0.84375 8.3125 -1.445312 8.3125 -2.34375 C 8.3125 -2.65625 8.269531 -2.9375 8.171875 -3.179688 C 7.980469 -3.660156 7.648438 -4.023438 7.238281 -4.296875 C 6.820312 -4.566406 6.378906 -4.757812 5.933594 -4.90625 L 5.324219 -5.105469 C 4.871094 -5.246094 4.503906 -5.382812 4.234375 -5.523438 C 3.957031 -5.65625 3.816406 -5.785156 3.816406 -5.90625 C 3.816406 -6.152344 3.964844 -6.300781 4.191406 -6.367188 C 4.417969 -6.4375 4.714844 -6.429688 5.035156 -6.351562 C 5.347656 -6.253906 5.65625 -6.089844 5.933594 -5.925781 C 6.210938 -5.757812 6.480469 -5.609375 6.753906 -5.566406 C 7.03125 -5.53125 7.351562 -5.601562 7.605469 -5.800781 C 7.851562 -6.003906 8.023438 -6.300781 7.988281 -6.71875 C 7.894531 -7.351562 7.457031 -7.832031 6.8125 -8.15625 C 6.167969 -8.46875 5.324219 -8.632812 4.441406 -8.632812 C 3.902344 -8.632812 3.433594 -8.5625 3.039062 -8.433594 C 2.246094 -8.164062 1.726562 -7.738281 1.429688 -7.222656 C 1.132812 -6.699219 0.96875 -6.0625 1.148438 -5.53125 C 1.324219 -5 1.726562 -4.589844 2.273438 -4.277344 C 2.824219 -3.964844 3.425781 -3.730469 4.007812 -3.527344 C 4.296875 -3.433594 4.554688 -3.335938 4.792969 -3.242188 C 5.253906 -3.058594 5.566406 -2.875 5.566406 -2.640625 C 5.566406 -2.328125 5.367188 -2.195312 5.089844 -2.144531 C 4.808594 -2.089844 4.453125 -2.125 4.164062 -2.167969 C 3.652344 -2.300781 3.214844 -2.578125 2.824219 -2.847656 C 2.429688 -3.117188 2.066406 -3.355469 1.714844 -3.390625 C 1.394531 -3.433594 1.089844 -3.3125 0.878906 -3.101562 C 0.664062 -2.890625 0.53125 -2.585938 0.539062 -2.265625 C 0.574219 -1.769531 0.835938 -1.324219 1.238281 -0.976562 C 1.636719 -0.617188 2.160156 -0.339844 2.71875 -0.15625 C 3.277344 0.0273438 3.867188 0.128906 4.390625 0.128906 Z M 4.390625 0.128906 "/></g></g></g><g fill="#ffffff" fill-opacity="1"><g transform="translate(72.443305, 22.228504)"><g><path d="M 8.597656 -7.320312 C 7.929688 -8.101562 6.960938 -8.589844 5.777344 -8.589844 C 5.261719 -8.589844 4.773438 -8.40625 4.375 -8.164062 C 4.070312 -7.972656 3.824219 -7.738281 3.675781 -7.5 L 3.675781 -9.90625 C 3.675781 -10.289062 3.519531 -10.628906 3.277344 -10.871094 C 3.023438 -11.117188 2.683594 -11.273438 2.308594 -11.273438 C 1.925781 -11.273438 1.578125 -11.117188 1.332031 -10.871094 C 1.089844 -10.628906 0.941406 -10.289062 0.941406 -9.90625 L 0.941406 -1.238281 C 0.941406 -0.855469 1.089844 -0.515625 1.332031 -0.269531 C 1.578125 -0.015625 1.925781 0.128906 2.308594 0.128906 C 2.683594 0.128906 3.023438 -0.015625 3.277344 -0.269531 C 3.519531 -0.515625 3.675781 -0.855469 3.675781 -1.238281 L 3.675781 -4.136719 C 3.675781 -4.582031 3.859375 -5.027344 4.171875 -5.367188 C 4.476562 -5.707031 4.894531 -5.925781 5.359375 -5.925781 C 5.8125 -5.925781 6.203125 -5.734375 6.480469 -5.429688 C 6.753906 -5.121094 6.917969 -4.703125 6.917969 -4.25 L 6.917969 -1.429688 C 6.917969 -1.019531 7.039062 -0.628906 7.265625 -0.347656 C 7.492188 -0.0625 7.824219 0.128906 8.277344 0.128906 C 8.660156 0.128906 9.007812 -0.0351562 9.253906 -0.289062 C 9.496094 -0.53125 9.644531 -0.871094 9.644531 -1.246094 L 9.644531 -4.25 C 9.644531 -5.445312 9.269531 -6.535156 8.597656 -7.320312 Z M 8.597656 -7.320312 "/></g></g></g><g fill="#ffffff" fill-opacity="1"><g transform="translate(83.007412, 22.228504)"><g><path d="M 0.53125 -4.214844 C 0.53125 -3.023438 1.019531 -1.933594 1.8125 -1.148438 C 2.605469 -0.367188 3.695312 0.128906 4.878906 0.128906 C 6.074219 0.128906 7.171875 -0.367188 7.953125 -1.148438 C 8.738281 -1.933594 9.226562 -3.023438 9.226562 -4.214844 C 9.226562 -5.402344 8.738281 -6.5 7.953125 -7.285156 C 7.171875 -8.066406 6.074219 -8.554688 4.878906 -8.554688 C 3.695312 -8.554688 2.605469 -8.066406 1.8125 -7.285156 C 1.019531 -6.5 0.53125 -5.402344 0.53125 -4.214844 Z M 3.277344 -4.214844 C 3.277344 -4.667969 3.449219 -5.089844 3.738281 -5.394531 C 4.023438 -5.699219 4.425781 -5.890625 4.878906 -5.890625 C 5.332031 -5.890625 5.734375 -5.699219 6.019531 -5.394531 C 6.308594 -5.089844 6.480469 -4.667969 6.480469 -4.214844 C 6.480469 -3.765625 6.308594 -3.335938 6.019531 -3.03125 C 5.734375 -2.71875 5.332031 -2.527344 4.878906 -2.527344 C 4.425781 -2.527344 4.023438 -2.71875 3.738281 -3.03125 C 3.449219 -3.335938 3.277344 -3.765625 3.277344 -4.214844 Z M 3.277344 -4.214844 "/></g></g></g><g fill="#ffffff" fill-opacity="1"><g transform="translate(92.770284, 22.228504)"><g><path d="M 8.496094 -7.285156 C 7.769531 -8.066406 6.753906 -8.554688 5.558594 -8.554688 C 4.433594 -8.554688 3.511719 -8.121094 2.847656 -7.40625 L 2.789062 -7.5625 C 2.585938 -8.214844 2.222656 -8.554688 1.699219 -8.554688 C 1.195312 -8.554688 0.941406 -8.304688 0.941406 -7.804688 L 0.941406 1.523438 C 0.941406 1.917969 1.089844 2.257812 1.332031 2.5 C 1.578125 2.746094 1.925781 2.890625 2.308594 2.890625 C 2.683594 2.890625 3.023438 2.746094 3.277344 2.5 C 3.519531 2.257812 3.675781 1.917969 3.675781 1.523438 L 3.675781 -0.480469 C 4.25 -0.0976562 4.90625 0.128906 5.558594 0.128906 C 6.753906 0.128906 7.769531 -0.367188 8.496094 -1.148438 C 9.21875 -1.933594 9.636719 -3.023438 9.636719 -4.214844 C 9.636719 -5.402344 9.21875 -6.5 8.496094 -7.285156 Z M 6.4375 -3.03125 C 6.152344 -2.71875 5.742188 -2.527344 5.289062 -2.527344 C 4.835938 -2.527344 4.433594 -2.71875 4.148438 -3.03125 C 3.859375 -3.335938 3.683594 -3.765625 3.683594 -4.214844 C 3.683594 -4.667969 3.859375 -5.089844 4.148438 -5.394531 C 4.433594 -5.699219 4.835938 -5.890625 5.289062 -5.890625 C 5.742188 -5.890625 6.152344 -5.699219 6.4375 -5.394531 C 6.726562 -5.089844 6.898438 -4.667969 6.898438 -4.214844 C 6.898438 -3.765625 6.726562 -3.335938 6.4375 -3.03125 Z M 6.4375 -3.03125 "/></g></g></g></svg>