<svg xmlns="http://www.w3.org/2000/svg" xmlns:xlink="http://www.w3.org/1999/xlink" width="110" zoomAndPan="magnify" viewBox="0 0 82.5 37.5" height="50" preserveAspectRatio="xMidYMid meet" version="1.0"><defs><g/></defs><g fill="#ffffff" fill-opacity="1"><g transform="translate(6.929993, 26.360282)"><g><path d="M 1.535156 -0.644531 L 1.703125 -0.207031 L 2.140625 -0.0429688 L 2.554688 0 L 3.78125 -0.0195312 L 4.238281 0.0195312 L 4.671875 0.0195312 L 5.089844 -0.207031 L 5.273438 -0.644531 L 5.296875 -1.472656 L 5.253906 -1.867188 L 5.316406 -2.242188 L 5.273438 -2.699219 L 5.273438 -3.136719 L 5.421875 -3.488281 L 5.980469 -3.695312 L 6.4375 -3.757812 L 7.0625 -3.695312 L 8.140625 -3.71875 L 8.992188 -3.882812 L 10.195312 -4.238281 L 10.902344 -4.671875 L 11.234375 -4.921875 L 11.859375 -5.523438 L 12.523438 -6.519531 L 12.710938 -6.894531 L 12.855469 -7.269531 L 13.042969 -8.121094 L 13.082031 -8.492188 L 13.105469 -9.71875 L 12.730469 -11.339844 L 12.316406 -12.085938 L 12.046875 -12.441406 L 11.773438 -12.730469 L 11.546875 -13.042969 L 11.195312 -13.351562 L 10.570312 -13.769531 L 9.824219 -14.164062 L 9.386719 -14.246094 L 8.972656 -14.414062 L 8.597656 -14.496094 L 2.386719 -14.515625 L 1.828125 -14.328125 L 1.621094 -13.933594 L 1.578125 -13.5 L 1.578125 -12.648438 L 1.515625 -12.273438 L 1.515625 -11.878906 L 1.578125 -11.441406 L 1.578125 -9.324219 L 1.535156 -8.910156 L 1.578125 -8.535156 L 1.535156 -8.078125 L 1.597656 -7.226562 L 1.515625 -6.667969 L 1.578125 -6.042969 L 1.535156 -5.648438 L 1.535156 -4.777344 L 1.597656 -4.382812 L 1.535156 -3.550781 L 1.597656 -2.242188 L 1.496094 -1.828125 L 1.578125 -1.433594 L 1.515625 -1.039062 Z M 5.941406 -7.082031 L 5.542969 -7.269531 L 5.296875 -7.683594 L 5.253906 -10.570312 L 5.503906 -11.027344 L 5.917969 -11.195312 L 6.4375 -11.234375 L 8.097656 -11.152344 L 8.453125 -10.964844 L 8.765625 -10.738281 L 9.097656 -10.425781 L 9.304688 -10.070312 L 9.492188 -9.097656 L 9.261719 -8.140625 L 8.785156 -7.558594 L 8.453125 -7.332031 L 8.121094 -7.144531 L 6.417969 -7.039062 Z M 5.941406 -7.082031 "/></g></g></g><g fill="#ffffff" fill-opacity="1"><g transform="translate(20.587553, 26.360282)"><g><path d="M 1.558594 -0.601562 L 1.746094 -0.226562 L 2.410156 0.0195312 L 9.761719 -0.0195312 L 10.34375 -0.226562 L 10.570312 -0.601562 L 10.527344 -1.058594 L 10.550781 -1.472656 L 10.589844 -1.847656 L 10.527344 -2.304688 L 10.589844 -2.699219 L 10.320312 -3.15625 L 9.988281 -3.363281 L 9.53125 -3.300781 L 5.878906 -3.34375 L 5.441406 -3.53125 L 5.316406 -3.988281 L 5.335938 -4.753906 L 5.273438 -5.148438 L 5.296875 -5.605469 L 5.253906 -6.023438 L 5.296875 -6.457031 L 5.273438 -7.496094 L 5.335938 -8.078125 L 5.273438 -8.535156 L 5.335938 -8.972656 L 5.273438 -12.210938 L 5.316406 -12.667969 L 5.273438 -13.6875 L 5.066406 -14.308594 L 4.527344 -14.558594 L 2.367188 -14.515625 L 1.765625 -14.289062 L 1.496094 -13.726562 L 1.621094 -12.648438 L 1.578125 -12.253906 L 1.515625 -11.816406 L 1.578125 -11.402344 L 1.621094 -11.007812 L 1.558594 -10.550781 L 1.578125 -10.15625 L 1.535156 -9.738281 L 1.597656 -9.304688 L 1.535156 -8.929688 L 1.578125 -8.515625 L 1.515625 -8.121094 L 1.578125 -7.226562 L 1.515625 -6.832031 L 1.578125 -6 L 1.515625 -5.585938 L 1.535156 -4.753906 L 1.578125 -4.382812 L 1.558594 -1.847656 L 1.597656 -1.433594 L 1.515625 -1.039062 Z M 1.558594 -0.601562 "/></g></g></g><g fill="#ffffff" fill-opacity="1"><g transform="translate(31.754368, 26.360282)"><g><path d="M 0.269531 -0.5625 L 0.375 -0.125 L 0.789062 -0.0195312 L 2.617188 -0.0195312 L 3.15625 0.0429688 L 3.632812 -0.167969 L 4.007812 -0.539062 L 4.359375 -1.246094 L 4.714844 -1.640625 L 5.210938 -1.847656 L 5.628906 -1.808594 L 6.789062 -1.828125 L 7.226562 -1.765625 L 7.703125 -1.828125 L 8.078125 -1.828125 L 8.515625 -1.785156 L 9.492188 -1.828125 L 10.175781 -1.597656 L 10.613281 -1.265625 L 10.714844 -0.894531 L 10.945312 -0.519531 L 11.296875 -0.1875 L 11.835938 0.0195312 L 12.210938 -0.0195312 L 12.9375 0.0429688 L 14.226562 0 L 14.597656 -0.125 L 14.683594 -0.5625 L 14.558594 -1.078125 L 14.414062 -1.453125 L 14.144531 -1.808594 L 14.019531 -2.222656 L 13.808594 -2.535156 L 13.6875 -2.929688 L 13.332031 -3.675781 L 13.1875 -4.070312 L 12.980469 -4.421875 L 12.6875 -5.191406 L 12.460938 -5.523438 L 12.292969 -5.941406 L 12.105469 -6.292969 L 11.960938 -6.707031 L 11.773438 -7.019531 L 11.652344 -7.433594 L 11.421875 -7.808594 L 11.257812 -8.160156 L 11.046875 -8.515625 L 10.945312 -8.910156 L 10.527344 -9.636719 L 10.40625 -10.03125 L 10.03125 -10.820312 L 9.925781 -11.152344 L 9.617188 -11.878906 L 9.199219 -12.648438 L 8.867188 -13.4375 L 8.679688 -13.746094 L 8.554688 -14.144531 L 8.183594 -14.539062 L 7.476562 -14.722656 L 6.8125 -14.515625 L 6.417969 -14.144531 L 6.292969 -13.769531 L 5.398438 -11.898438 L 5.171875 -11.527344 L 4.007812 -8.910156 L 3.902344 -8.554688 L 3.675781 -8.183594 L 3.34375 -7.433594 L 3.03125 -6.894531 L 2.886719 -6.5 L 2.597656 -5.960938 L 2.472656 -5.523438 L 2.285156 -5.191406 L 2.140625 -4.777344 L 1.558594 -3.695312 L 0.957031 -2.179688 L 0.707031 -1.847656 L 0.519531 -1.433594 Z M 6.6875 -5.128906 L 6.292969 -5.296875 L 6.230469 -5.710938 L 7.0625 -7.601562 L 7.246094 -7.933594 L 7.519531 -8.140625 L 7.765625 -7.976562 L 8.035156 -7.164062 L 8.265625 -6.8125 L 8.347656 -6.480469 L 8.554688 -6.0625 L 8.703125 -5.691406 L 8.660156 -5.316406 L 8.308594 -5.148438 Z M 6.6875 -5.128906 "/></g></g></g><g fill="#ffffff" fill-opacity="1"><g transform="translate(46.823344, 26.360282)"><g><path d="M 7.640625 0.207031 L 8.886719 0.269531 L 10.902344 -0.144531 L 12.046875 -0.644531 L 12.355469 -0.851562 L 12.730469 -1.078125 L 13.082031 -1.328125 L 13.351562 -1.597656 L 13.582031 -1.953125 L 13.933594 -2.222656 L 14.558594 -3.300781 L 14.746094 -3.675781 L 14.847656 -4.070312 L 14.992188 -4.484375 L 15.054688 -4.878906 L 14.933594 -5.253906 L 14.414062 -5.484375 L 12.191406 -5.503906 L 11.734375 -5.296875 L 11.316406 -4.902344 L 11.152344 -4.546875 L 10.363281 -3.695312 L 9.65625 -3.34375 L 9.242188 -3.21875 L 8.804688 -3.175781 L 7.640625 -3.199219 L 6.519531 -3.613281 L 6.125 -3.800781 L 5.855469 -4.089844 L 5.089844 -5.089844 L 4.921875 -5.441406 L 4.671875 -6.25 L 4.609375 -7.226562 L 4.632812 -7.890625 L 4.777344 -8.265625 L 4.796875 -8.679688 L 4.921875 -9.054688 L 5.273438 -9.800781 L 5.792969 -10.445312 L 6.480469 -10.945312 L 6.875 -11.109375 L 7.601562 -11.316406 L 8.886719 -11.277344 L 9.675781 -11.132812 L 10.113281 -10.984375 L 10.714844 -10.488281 L 11.027344 -10.15625 L 11.214844 -9.800781 L 11.589844 -9.40625 L 12.046875 -9.222656 L 14.144531 -9.179688 L 14.558594 -9.222656 L 14.890625 -9.40625 L 15.015625 -9.84375 L 14.847656 -10.257812 L 14.785156 -10.632812 L 14.453125 -11.421875 L 13.6875 -12.480469 L 12.605469 -13.457031 L 12.148438 -13.769531 L 10.964844 -14.308594 L 10.15625 -14.539062 L 9.117188 -14.683594 L 7.226562 -14.683594 L 6.875 -14.640625 L 6.480469 -14.515625 L 5.667969 -14.351562 L 5.273438 -14.203125 L 4.964844 -14.019531 L 4.589844 -13.871094 L 3.136719 -12.9375 L 2.886719 -12.605469 L 2.324219 -12.085938 L 2.078125 -11.734375 L 1.121094 -9.863281 L 0.746094 -7.269531 L 0.832031 -6.605469 L 0.832031 -5.773438 L 1.039062 -4.964844 L 1.203125 -4.570312 L 1.265625 -4.195312 L 1.472656 -3.820312 L 1.621094 -3.46875 L 2.449219 -2.261719 L 3.199219 -1.535156 L 3.550781 -1.308594 L 3.863281 -1.058594 L 5.273438 -0.289062 L 5.691406 -0.144531 L 6 -0.0625 L 6.4375 0.0820312 L 6.875 0.125 L 7.246094 0.207031 Z M 7.640625 0.207031 "/></g></g></g><g fill="#ffffff" fill-opacity="1"><g transform="translate(62.660298, 26.360282)"><g><path d="M 1.496094 -0.601562 L 1.765625 -0.207031 L 2.160156 0.0195312 L 6.851562 -0.0195312 L 7.226562 0.0429688 L 8.492188 -0.0195312 L 9.761719 0.0625 L 10.15625 0.0195312 L 10.589844 -0.1875 L 10.777344 -0.582031 L 10.820312 -0.976562 L 10.800781 -2.261719 L 10.839844 -2.660156 L 10.570312 -3.074219 L 9.949219 -3.28125 L 7.207031 -3.324219 L 6.8125 -3.261719 L 6.355469 -3.300781 L 5.898438 -3.261719 L 5.460938 -3.507812 L 5.273438 -4.152344 L 5.296875 -5.171875 L 5.484375 -5.605469 L 5.855469 -5.835938 L 6.667969 -5.835938 L 7.082031 -5.878906 L 8.183594 -5.816406 L 8.742188 -5.855469 L 9.179688 -5.816406 L 9.554688 -5.835938 L 9.96875 -6.0625 L 10.175781 -6.457031 L 10.21875 -8.097656 L 10.175781 -8.515625 L 9.988281 -8.910156 L 9.636719 -9.136719 L 8.804688 -9.160156 L 8.390625 -9.117188 L 7.953125 -9.117188 L 7.476562 -9.160156 L 5.835938 -9.136719 L 5.484375 -9.367188 L 5.234375 -9.738281 L 5.191406 -10.382812 L 5.398438 -10.984375 L 6.042969 -11.171875 L 10.03125 -11.195312 L 10.464844 -11.421875 L 10.695312 -11.796875 L 10.652344 -12.648438 L 10.589844 -13.042969 L 10.613281 -13.5 L 10.675781 -13.894531 L 10.464844 -14.308594 L 10.03125 -14.496094 L 8.371094 -14.515625 L 7.996094 -14.476562 L 7.582031 -14.539062 L 6.667969 -14.496094 L 6.25 -14.539062 L 5.441406 -14.515625 L 5.066406 -14.558594 L 2.347656 -14.496094 L 1.746094 -14.351562 L 1.535156 -13.894531 L 1.578125 -13.0625 L 1.496094 -12.460938 L 1.578125 -11.402344 L 1.535156 -10.964844 L 1.578125 -10.589844 L 1.578125 -6.875 L 1.515625 -6.4375 L 1.578125 -5.628906 L 1.535156 -4.796875 L 1.597656 -4.359375 L 1.558594 -3.902344 L 1.578125 -3.507812 L 1.515625 -3.136719 L 1.558594 -2.660156 L 1.558594 -2.242188 L 1.597656 -1.433594 L 1.578125 -1.019531 Z M 1.496094 -0.601562 "/></g></g></g></svg>