<svg xmlns="http://www.w3.org/2000/svg" xmlns:xlink="http://www.w3.org/1999/xlink" width="20" zoomAndPan="magnify" viewBox="0 0 67.5 30.000001" height="40" preserveAspectRatio="xMidYMid meet" version="1.0"><defs><g/><clipPath id="cc045effb7"><path d="M 56 9 L 66.167969 9 L 66.167969 21 L 56 21 Z M 56 9 " clip-rule="nonzero"/></clipPath></defs><g fill="#ffffff" fill-opacity="1"><g transform="translate(0.858969, 20.815447)"><g><path d="M 1.230469 -0.515625 L 1.363281 -0.167969 L 1.710938 -0.0351562 L 2.042969 0 L 3.027344 -0.015625 L 3.390625 0.015625 L 3.742188 0.015625 L 4.074219 -0.167969 L 4.222656 -0.515625 L 4.238281 -1.179688 L 4.207031 -1.496094 L 4.257812 -1.796875 L 4.222656 -2.160156 L 4.222656 -2.511719 L 4.339844 -2.792969 L 4.789062 -2.960938 L 5.152344 -3.007812 L 5.652344 -2.960938 L 6.515625 -2.976562 L 7.199219 -3.109375 L 8.164062 -3.390625 L 8.726562 -3.742188 L 8.992188 -3.941406 L 9.492188 -4.421875 L 10.023438 -5.21875 L 10.175781 -5.519531 L 10.289062 -5.820312 L 10.441406 -6.5 L 10.472656 -6.800781 L 10.492188 -7.78125 L 10.191406 -9.078125 L 9.859375 -9.675781 L 9.640625 -9.957031 L 9.425781 -10.191406 L 9.242188 -10.441406 L 8.960938 -10.691406 L 8.460938 -11.023438 L 7.863281 -11.339844 L 7.515625 -11.40625 L 7.183594 -11.539062 L 6.882812 -11.605469 L 1.910156 -11.621094 L 1.464844 -11.472656 L 1.296875 -11.15625 L 1.261719 -10.804688 L 1.261719 -10.125 L 1.214844 -9.824219 L 1.214844 -9.507812 L 1.261719 -9.160156 L 1.261719 -7.464844 L 1.230469 -7.132812 L 1.261719 -6.832031 L 1.230469 -6.46875 L 1.28125 -5.785156 L 1.214844 -5.335938 L 1.261719 -4.835938 L 1.230469 -4.523438 L 1.230469 -3.824219 L 1.28125 -3.507812 L 1.230469 -2.84375 L 1.28125 -1.796875 L 1.195312 -1.464844 L 1.261719 -1.148438 L 1.214844 -0.832031 Z M 4.753906 -5.667969 L 4.4375 -5.820312 L 4.238281 -6.152344 L 4.207031 -8.460938 L 4.40625 -8.828125 L 4.738281 -8.960938 L 5.152344 -8.992188 L 6.484375 -8.925781 L 6.765625 -8.777344 L 7.015625 -8.59375 L 7.28125 -8.347656 L 7.449219 -8.0625 L 7.597656 -7.28125 L 7.414062 -6.515625 L 7.03125 -6.050781 L 6.765625 -5.867188 L 6.5 -5.71875 L 5.136719 -5.636719 Z M 4.753906 -5.667969 "/></g></g></g><g fill="#ffffff" fill-opacity="1"><g transform="translate(11.796671, 20.815447)"><g><path d="M 1.246094 -0.480469 L 1.398438 -0.183594 L 1.929688 0.015625 L 7.8125 -0.015625 L 8.277344 -0.183594 L 8.460938 -0.480469 L 8.429688 -0.847656 L 8.445312 -1.179688 L 8.480469 -1.480469 L 8.429688 -1.84375 L 8.480469 -2.160156 L 8.261719 -2.527344 L 7.996094 -2.691406 L 7.632812 -2.644531 L 4.703125 -2.675781 L 4.355469 -2.828125 L 4.257812 -3.191406 L 4.273438 -3.808594 L 4.222656 -4.121094 L 4.238281 -4.488281 L 4.207031 -4.820312 L 4.238281 -5.171875 L 4.222656 -6 L 4.273438 -6.46875 L 4.222656 -6.832031 L 4.273438 -7.183594 L 4.222656 -9.777344 L 4.257812 -10.140625 L 4.222656 -10.957031 L 4.054688 -11.453125 L 3.625 -11.652344 L 1.894531 -11.621094 L 1.414062 -11.4375 L 1.195312 -10.988281 L 1.296875 -10.125 L 1.261719 -9.808594 L 1.214844 -9.460938 L 1.261719 -9.128906 L 1.296875 -8.8125 L 1.246094 -8.445312 L 1.261719 -8.128906 L 1.230469 -7.796875 L 1.28125 -7.449219 L 1.230469 -7.148438 L 1.261719 -6.816406 L 1.214844 -6.5 L 1.261719 -5.785156 L 1.214844 -5.46875 L 1.261719 -4.804688 L 1.214844 -4.472656 L 1.230469 -3.808594 L 1.261719 -3.507812 L 1.246094 -1.480469 L 1.28125 -1.148438 L 1.214844 -0.832031 Z M 1.246094 -0.480469 "/></g></g></g><g fill="#ffffff" fill-opacity="1"><g transform="translate(20.739659, 20.815447)"><g><path d="M 0.214844 -0.449219 L 0.300781 -0.101562 L 0.632812 -0.015625 L 2.09375 -0.015625 L 2.527344 0.0351562 L 2.910156 -0.132812 L 3.207031 -0.433594 L 3.492188 -0.996094 L 3.773438 -1.3125 L 4.171875 -1.480469 L 4.503906 -1.445312 L 5.4375 -1.464844 L 5.785156 -1.414062 L 6.167969 -1.464844 L 6.46875 -1.464844 L 6.816406 -1.429688 L 7.597656 -1.464844 L 8.144531 -1.28125 L 8.496094 -1.015625 L 8.578125 -0.714844 L 8.761719 -0.414062 L 9.042969 -0.148438 L 9.476562 0.015625 L 9.777344 -0.015625 L 10.355469 0.0351562 L 11.386719 0 L 11.6875 -0.101562 L 11.753906 -0.449219 L 11.652344 -0.863281 L 11.539062 -1.164062 L 11.320312 -1.445312 L 11.222656 -1.777344 L 11.054688 -2.027344 L 10.957031 -2.34375 L 10.671875 -2.941406 L 10.558594 -3.257812 L 10.390625 -3.542969 L 10.15625 -4.15625 L 9.976562 -4.421875 L 9.84375 -4.753906 L 9.691406 -5.039062 L 9.574219 -5.371094 L 9.425781 -5.621094 L 9.328125 -5.953125 L 9.144531 -6.25 L 9.011719 -6.535156 L 8.84375 -6.816406 L 8.761719 -7.132812 L 8.429688 -7.714844 L 8.328125 -8.03125 L 8.03125 -8.660156 L 7.945312 -8.925781 L 7.699219 -9.507812 L 7.363281 -10.125 L 7.097656 -10.757812 L 6.949219 -11.003906 L 6.847656 -11.320312 L 6.550781 -11.636719 L 5.984375 -11.789062 L 5.453125 -11.621094 L 5.136719 -11.320312 L 5.039062 -11.023438 L 4.324219 -9.527344 L 4.140625 -9.226562 L 3.207031 -7.132812 L 3.125 -6.847656 L 2.941406 -6.550781 L 2.675781 -5.953125 L 2.425781 -5.519531 L 2.3125 -5.203125 L 2.078125 -4.769531 L 1.976562 -4.421875 L 1.828125 -4.15625 L 1.710938 -3.824219 L 1.246094 -2.960938 L 0.765625 -1.746094 L 0.566406 -1.480469 L 0.414062 -1.148438 Z M 5.351562 -4.105469 L 5.039062 -4.238281 L 4.988281 -4.570312 L 5.652344 -6.085938 L 5.800781 -6.351562 L 6.019531 -6.515625 L 6.21875 -6.382812 L 6.433594 -5.734375 L 6.617188 -5.453125 L 6.683594 -5.1875 L 6.847656 -4.855469 L 6.964844 -4.554688 L 6.933594 -4.257812 L 6.648438 -4.121094 Z M 5.351562 -4.105469 "/></g></g></g><g fill="#ffffff" fill-opacity="1"><g transform="translate(32.807702, 20.815447)"><g><path d="M 6.117188 0.167969 L 7.117188 0.214844 L 8.726562 -0.117188 L 9.640625 -0.515625 L 9.890625 -0.679688 L 10.191406 -0.863281 L 10.472656 -1.0625 L 10.691406 -1.28125 L 10.871094 -1.5625 L 11.15625 -1.777344 L 11.652344 -2.644531 L 11.804688 -2.941406 L 11.886719 -3.257812 L 12.003906 -3.589844 L 12.054688 -3.90625 L 11.953125 -4.207031 L 11.539062 -4.390625 L 9.757812 -4.40625 L 9.394531 -4.238281 L 9.0625 -3.921875 L 8.925781 -3.640625 L 8.296875 -2.960938 L 7.730469 -2.675781 L 7.398438 -2.578125 L 7.050781 -2.542969 L 6.117188 -2.558594 L 5.21875 -2.894531 L 4.90625 -3.042969 L 4.6875 -3.273438 L 4.074219 -4.074219 L 3.941406 -4.355469 L 3.742188 -5.003906 L 3.691406 -5.785156 L 3.707031 -6.316406 L 3.824219 -6.617188 L 3.839844 -6.949219 L 3.941406 -7.25 L 4.222656 -7.847656 L 4.636719 -8.363281 L 5.1875 -8.761719 L 5.503906 -8.894531 L 6.085938 -9.0625 L 7.117188 -9.027344 L 7.746094 -8.910156 L 8.097656 -8.792969 L 8.578125 -8.394531 L 8.828125 -8.128906 L 8.976562 -7.847656 L 9.277344 -7.53125 L 9.640625 -7.382812 L 11.320312 -7.347656 L 11.652344 -7.382812 L 11.921875 -7.53125 L 12.019531 -7.878906 L 11.886719 -8.210938 L 11.835938 -8.511719 L 11.570312 -9.144531 L 10.957031 -9.992188 L 10.089844 -10.773438 L 9.726562 -11.023438 L 8.777344 -11.453125 L 8.128906 -11.636719 L 7.296875 -11.753906 L 5.785156 -11.753906 L 5.503906 -11.71875 L 5.1875 -11.621094 L 4.539062 -11.488281 L 4.222656 -11.371094 L 3.972656 -11.222656 L 3.675781 -11.105469 L 2.511719 -10.355469 L 2.3125 -10.089844 L 1.863281 -9.675781 L 1.664062 -9.394531 L 0.898438 -7.898438 L 0.597656 -5.820312 L 0.664062 -5.285156 L 0.664062 -4.621094 L 0.832031 -3.972656 L 0.964844 -3.65625 L 1.015625 -3.359375 L 1.179688 -3.058594 L 1.296875 -2.777344 L 1.960938 -1.8125 L 2.558594 -1.230469 L 2.84375 -1.046875 L 3.09375 -0.847656 L 4.222656 -0.234375 L 4.554688 -0.117188 L 4.804688 -0.0507812 L 5.152344 0.0664062 L 5.503906 0.101562 L 5.800781 0.167969 Z M 6.117188 0.167969 "/></g></g></g><g fill="#ffffff" fill-opacity="1"><g transform="translate(45.490777, 20.815447)"><g><path d="M 1.195312 -0.480469 L 1.414062 -0.167969 L 1.730469 0.015625 L 5.484375 -0.015625 L 5.785156 0.0351562 L 6.800781 -0.015625 L 7.8125 0.0507812 L 8.128906 0.015625 L 8.480469 -0.148438 L 8.628906 -0.464844 L 8.660156 -0.78125 L 8.644531 -1.8125 L 8.679688 -2.128906 L 8.460938 -2.460938 L 7.964844 -2.625 L 5.769531 -2.660156 L 5.453125 -2.609375 L 5.085938 -2.644531 L 4.722656 -2.609375 L 4.371094 -2.808594 L 4.222656 -3.324219 L 4.238281 -4.140625 L 4.390625 -4.488281 L 4.6875 -4.671875 L 5.335938 -4.671875 L 5.667969 -4.703125 L 6.550781 -4.65625 L 7 -4.6875 L 7.347656 -4.65625 L 7.648438 -4.671875 L 7.980469 -4.855469 L 8.144531 -5.171875 L 8.179688 -6.484375 L 8.144531 -6.816406 L 7.996094 -7.132812 L 7.714844 -7.316406 L 7.050781 -7.332031 L 6.714844 -7.296875 L 6.367188 -7.296875 L 5.984375 -7.332031 L 4.671875 -7.316406 L 4.390625 -7.496094 L 4.191406 -7.796875 L 4.15625 -8.3125 L 4.324219 -8.792969 L 4.835938 -8.945312 L 8.03125 -8.960938 L 8.378906 -9.144531 L 8.5625 -9.441406 L 8.527344 -10.125 L 8.480469 -10.441406 L 8.496094 -10.804688 L 8.546875 -11.121094 L 8.378906 -11.453125 L 8.03125 -11.605469 L 6.699219 -11.621094 L 6.402344 -11.585938 L 6.066406 -11.636719 L 5.335938 -11.605469 L 5.003906 -11.636719 L 4.355469 -11.621094 L 4.054688 -11.652344 L 1.878906 -11.605469 L 1.398438 -11.488281 L 1.230469 -11.121094 L 1.261719 -10.457031 L 1.195312 -9.976562 L 1.261719 -9.128906 L 1.230469 -8.777344 L 1.261719 -8.480469 L 1.261719 -5.503906 L 1.214844 -5.152344 L 1.261719 -4.503906 L 1.230469 -3.839844 L 1.28125 -3.492188 L 1.246094 -3.125 L 1.261719 -2.808594 L 1.214844 -2.511719 L 1.246094 -2.128906 L 1.246094 -1.796875 L 1.28125 -1.148438 L 1.261719 -0.816406 Z M 1.195312 -0.480469 "/></g></g></g><g clip-path="url(#cc045effb7)"><g fill="#ffffff" fill-opacity="1"><g transform="translate(55.015556, 20.815447)"><g><path d="M 1.246094 -0.515625 L 1.445312 -0.148438 L 1.710938 0 L 2.09375 0 L 2.445312 0.0507812 L 2.777344 0.0507812 L 3.125 0 L 6.117188 -0.015625 L 7.183594 -0.167969 L 8.144531 -0.464844 L 9.558594 -1.414062 L 10.222656 -2.179688 L 10.738281 -3.007812 L 10.824219 -3.324219 L 10.988281 -3.640625 L 11.054688 -3.972656 L 11.171875 -4.273438 L 11.222656 -4.621094 L 11.304688 -4.972656 L 11.289062 -5.253906 L 11.355469 -6.316406 L 11.105469 -7.265625 L 11.070312 -7.613281 L 10.988281 -7.914062 L 10.738281 -8.578125 L 10.355469 -9.144531 L 10.222656 -9.425781 L 9.792969 -9.941406 L 9.507812 -10.15625 L 9.042969 -10.605469 L 8.429688 -10.988281 L 8.097656 -11.15625 L 7.183594 -11.453125 L 6.5 -11.585938 L 4.140625 -11.605469 L 3.808594 -11.636719 L 2.742188 -11.605469 L 2.410156 -11.636719 L 2.113281 -11.621094 L 1.761719 -11.636719 L 1.464844 -11.453125 L 1.214844 -11.140625 L 1.214844 -10.457031 L 1.246094 -10.125 L 1.230469 -9.792969 L 1.261719 -9.160156 L 1.214844 -8.792969 L 1.261719 -8.460938 L 1.214844 -8.128906 L 1.28125 -6.800781 L 1.230469 -6.167969 L 1.28125 -5.453125 L 1.230469 -5.136719 L 1.28125 -4.789062 L 1.230469 -4.140625 L 1.261719 -2.808594 L 1.230469 -2.476562 L 1.28125 -1.148438 Z M 4.769531 -2.675781 L 4.371094 -2.828125 L 4.222656 -3.191406 L 4.257812 -3.523438 L 4.191406 -3.824219 L 4.238281 -4.15625 L 4.238281 -8.429688 L 4.4375 -8.726562 L 4.921875 -8.910156 L 5.269531 -8.894531 L 5.621094 -8.910156 L 6.117188 -8.878906 L 6.78125 -8.679688 L 7.347656 -8.3125 L 7.765625 -7.847656 L 7.945312 -7.53125 L 8.164062 -7.265625 L 8.363281 -6.285156 L 8.414062 -5.769531 L 8.328125 -4.953125 L 8.230469 -4.636719 L 7.980469 -4.039062 L 7.765625 -3.742188 L 7.546875 -3.507812 L 7.347656 -3.242188 L 7.082031 -3.074219 L 6.75 -2.910156 L 6.152344 -2.742188 Z M 4.769531 -2.675781 "/></g></g></g></g></svg>