<svg xmlns="http://www.w3.org/2000/svg" xmlns:xlink="http://www.w3.org/1999/xlink" width="140" zoomAndPan="magnify" viewBox="0 0 104.88 37.5" height="50" preserveAspectRatio="xMidYMid meet" version="1.0"><defs><g/></defs><g fill="#0057ff" fill-opacity="0.302"><g transform="translate(8.211986, 27.103387)"><g><path d="M 5.296875 0 L 2.53125 0 L -0.09375 -14.84375 L 2.296875 -14.84375 L 3.90625 -5.421875 L 5.53125 -14.84375 L 7.921875 -14.84375 Z M 5.296875 0 "/></g></g></g><g fill="#0057ff" fill-opacity="0.302"><g transform="translate(16.008905, 27.103387)"><g><path d="M 0.859375 0 L 0.859375 -12.8125 C 0.859375 -13.382812 1.046875 -13.863281 1.421875 -14.25 C 1.796875 -14.644531 2.25 -14.84375 2.78125 -14.84375 L 5.453125 -14.84375 C 5.972656 -14.84375 6.421875 -14.644531 6.796875 -14.25 C 7.179688 -13.863281 7.375 -13.382812 7.375 -12.8125 L 7.375 0 L 5.015625 0 L 5.015625 -6.296875 L 3.203125 -5.34375 L 3.203125 0 Z M 3.203125 -7.96875 L 5.015625 -8.921875 L 5.015625 -12.609375 L 3.203125 -12.609375 Z M 3.203125 -7.96875 "/></g></g></g><g fill="#0057ff" fill-opacity="0.302"><g transform="translate(24.233052, 27.103387)"><g><path d="M 6.1875 0 L 3.734375 -5.546875 L 3.203125 -5.28125 L 3.203125 0 L 0.859375 0 L 0.859375 -14.84375 L 5.453125 -14.84375 C 5.972656 -14.84375 6.421875 -14.644531 6.796875 -14.25 C 7.179688 -13.863281 7.375 -13.382812 7.375 -12.8125 L 7.375 -7.40625 L 5.8125 -6.625 L 8.75 0 Z M 5.015625 -8.859375 L 5.015625 -12.609375 L 3.203125 -12.609375 L 3.203125 -7.90625 Z M 5.015625 -8.859375 "/></g></g></g><g fill="#0057ff" fill-opacity="0.302"><g transform="translate(32.457199, 27.103387)"><g><path d="M 0.859375 0 L 0.859375 -14.84375 L 3.203125 -14.84375 L 3.203125 0 Z M 0.859375 0 "/></g></g></g><g fill="#0057ff" fill-opacity="0.302"><g transform="translate(36.515868, 27.103387)"><g><path d="M 6.515625 -12.609375 L 3.203125 -12.609375 L 3.203125 -8.609375 L 6.515625 -10.3125 L 6.515625 -7.6875 L 3.203125 -5.984375 L 3.203125 -2.25 L 6.515625 -2.25 L 6.515625 0 L 0.859375 0 L 0.859375 -12.8125 C 0.859375 -13.382812 1.046875 -13.863281 1.421875 -14.25 C 1.796875 -14.644531 2.25 -14.84375 2.78125 -14.84375 L 6.515625 -14.84375 Z M 6.515625 -12.609375 "/></g></g></g><g fill="#0057ff" fill-opacity="0.302"><g transform="translate(43.671944, 27.103387)"><g><path d="M 2.671875 0 L 2.671875 -12.609375 L 0.328125 -12.609375 L 0.328125 -14.84375 L 7.375 -14.84375 L 7.375 -12.609375 L 5.015625 -12.609375 L 5.015625 0 Z M 2.671875 0 "/></g></g></g><g fill="#0057ff" fill-opacity="0.302"><g transform="translate(51.362056, 27.103387)"><g><path d="M 0.859375 0 L 0.859375 -14.84375 L 3.203125 -14.84375 L 3.203125 0 Z M 0.859375 0 "/></g></g></g><g fill="#0057ff" fill-opacity="0.302"><g transform="translate(55.420727, 27.103387)"><g><path d="M 6.515625 -12.609375 L 3.203125 -12.609375 L 3.203125 -8.609375 L 6.515625 -10.3125 L 6.515625 -7.6875 L 3.203125 -5.984375 L 3.203125 -2.25 L 6.515625 -2.25 L 6.515625 0 L 0.859375 0 L 0.859375 -12.8125 C 0.859375 -13.382812 1.046875 -13.863281 1.421875 -14.25 C 1.796875 -14.644531 2.25 -14.84375 2.78125 -14.84375 L 6.515625 -14.84375 Z M 6.515625 -12.609375 "/></g></g></g><g fill="#0057ff" fill-opacity="0.302"><g transform="translate(62.576803, 27.103387)"><g><path d="M 0.859375 -12.8125 C 0.859375 -13.394531 1.046875 -13.878906 1.421875 -14.265625 C 1.796875 -14.648438 2.25 -14.84375 2.78125 -14.84375 L 5.453125 -14.84375 C 5.972656 -14.84375 6.421875 -14.644531 6.796875 -14.25 C 7.179688 -13.863281 7.375 -13.382812 7.375 -12.8125 L 7.375 -12.171875 L 5.015625 -11 L 5.015625 -12.609375 L 3.203125 -12.609375 L 3.203125 -8.65625 L 7.375 -10.78125 L 7.375 -2.03125 C 7.375 -1.476562 7.179688 -1 6.796875 -0.59375 C 6.421875 -0.195312 5.972656 0 5.453125 0 L 2.78125 0 C 2.25 0 1.796875 -0.191406 1.421875 -0.578125 C 1.046875 -0.972656 0.859375 -1.457031 0.859375 -2.03125 L 0.859375 -3.421875 L 3.203125 -4.59375 L 3.203125 -2.25 L 5.015625 -2.25 L 5.015625 -6.9375 L 0.859375 -4.8125 Z M 0.859375 -12.8125 "/></g></g></g><g fill="#0057ff" fill-opacity="0.302"><g transform="translate(70.80095, 27.103387)"><g><path d="M 5.015625 -6.859375 L 3.203125 -5.890625 L 3.203125 0 L 0.859375 0 L 0.859375 -14.84375 L 3.203125 -14.84375 L 3.203125 -8.515625 L 5.015625 -9.484375 L 5.015625 -14.84375 L 7.375 -14.84375 L 7.375 0 L 5.015625 0 Z M 5.015625 -6.859375 "/></g></g></g><g fill="#0057ff" fill-opacity="0.302"><g transform="translate(79.025098, 27.103387)"><g><path d="M 7.375 -12.8125 L 7.375 -2.03125 C 7.375 -1.457031 7.179688 -0.972656 6.796875 -0.578125 C 6.421875 -0.191406 5.972656 0 5.453125 0 L 2.78125 0 C 2.25 0 1.796875 -0.195312 1.421875 -0.59375 C 1.046875 -1 0.859375 -1.476562 0.859375 -2.03125 L 0.859375 -12.8125 C 0.859375 -13.382812 1.046875 -13.863281 1.421875 -14.25 C 1.796875 -14.644531 2.25 -14.84375 2.78125 -14.84375 L 5.453125 -14.84375 C 5.972656 -14.84375 6.421875 -14.644531 6.796875 -14.25 C 7.179688 -13.863281 7.375 -13.382812 7.375 -12.8125 Z M 5.015625 -2.25 L 5.015625 -12.609375 L 3.203125 -12.609375 L 3.203125 -2.25 Z M 5.015625 -2.25 "/></g></g></g><g fill="#0057ff" fill-opacity="0.302"><g transform="translate(87.249245, 27.103387)"><g><path d="M 5.015625 -8.65625 L 5.015625 -12.609375 L 3.203125 -12.609375 L 3.203125 -7.6875 Z M 3.203125 0 L 0.859375 0 L 0.859375 -14.84375 L 5.453125 -14.84375 C 5.972656 -14.84375 6.421875 -14.644531 6.796875 -14.25 C 7.179688 -13.863281 7.375 -13.382812 7.375 -12.8125 L 7.375 -7.203125 L 3.203125 -5.0625 Z M 3.203125 0 "/></g></g></g><g fill="#0057ff" fill-opacity="0.502"><g transform="translate(7.508234, 26.573073)"><g><path d="M 5.296875 0 L 2.53125 0 L -0.09375 -14.84375 L 2.296875 -14.84375 L 3.90625 -5.421875 L 5.53125 -14.84375 L 7.921875 -14.84375 Z M 5.296875 0 "/></g></g></g><g fill="#0057ff" fill-opacity="0.502"><g transform="translate(15.305153, 26.573073)"><g><path d="M 0.859375 0 L 0.859375 -12.8125 C 0.859375 -13.382812 1.046875 -13.863281 1.421875 -14.25 C 1.796875 -14.644531 2.25 -14.84375 2.78125 -14.84375 L 5.453125 -14.84375 C 5.972656 -14.84375 6.421875 -14.644531 6.796875 -14.25 C 7.179688 -13.863281 7.375 -13.382812 7.375 -12.8125 L 7.375 0 L 5.015625 0 L 5.015625 -6.296875 L 3.203125 -5.34375 L 3.203125 0 Z M 3.203125 -7.96875 L 5.015625 -8.921875 L 5.015625 -12.609375 L 3.203125 -12.609375 Z M 3.203125 -7.96875 "/></g></g></g><g fill="#0057ff" fill-opacity="0.502"><g transform="translate(23.5293, 26.573073)"><g><path d="M 6.1875 0 L 3.734375 -5.546875 L 3.203125 -5.28125 L 3.203125 0 L 0.859375 0 L 0.859375 -14.84375 L 5.453125 -14.84375 C 5.972656 -14.84375 6.421875 -14.644531 6.796875 -14.25 C 7.179688 -13.863281 7.375 -13.382812 7.375 -12.8125 L 7.375 -7.40625 L 5.8125 -6.625 L 8.75 0 Z M 5.015625 -8.859375 L 5.015625 -12.609375 L 3.203125 -12.609375 L 3.203125 -7.90625 Z M 5.015625 -8.859375 "/></g></g></g><g fill="#0057ff" fill-opacity="0.502"><g transform="translate(31.753447, 26.573073)"><g><path d="M 0.859375 0 L 0.859375 -14.84375 L 3.203125 -14.84375 L 3.203125 0 Z M 0.859375 0 "/></g></g></g><g fill="#0057ff" fill-opacity="0.502"><g transform="translate(35.812116, 26.573073)"><g><path d="M 6.515625 -12.609375 L 3.203125 -12.609375 L 3.203125 -8.609375 L 6.515625 -10.3125 L 6.515625 -7.6875 L 3.203125 -5.984375 L 3.203125 -2.25 L 6.515625 -2.25 L 6.515625 0 L 0.859375 0 L 0.859375 -12.8125 C 0.859375 -13.382812 1.046875 -13.863281 1.421875 -14.25 C 1.796875 -14.644531 2.25 -14.84375 2.78125 -14.84375 L 6.515625 -14.84375 Z M 6.515625 -12.609375 "/></g></g></g><g fill="#0057ff" fill-opacity="0.502"><g transform="translate(42.968192, 26.573073)"><g><path d="M 2.671875 0 L 2.671875 -12.609375 L 0.328125 -12.609375 L 0.328125 -14.84375 L 7.375 -14.84375 L 7.375 -12.609375 L 5.015625 -12.609375 L 5.015625 0 Z M 2.671875 0 "/></g></g></g><g fill="#0057ff" fill-opacity="0.502"><g transform="translate(50.658304, 26.573073)"><g><path d="M 0.859375 0 L 0.859375 -14.84375 L 3.203125 -14.84375 L 3.203125 0 Z M 0.859375 0 "/></g></g></g><g fill="#0057ff" fill-opacity="0.502"><g transform="translate(54.716975, 26.573073)"><g><path d="M 6.515625 -12.609375 L 3.203125 -12.609375 L 3.203125 -8.609375 L 6.515625 -10.3125 L 6.515625 -7.6875 L 3.203125 -5.984375 L 3.203125 -2.25 L 6.515625 -2.25 L 6.515625 0 L 0.859375 0 L 0.859375 -12.8125 C 0.859375 -13.382812 1.046875 -13.863281 1.421875 -14.25 C 1.796875 -14.644531 2.25 -14.84375 2.78125 -14.84375 L 6.515625 -14.84375 Z M 6.515625 -12.609375 "/></g></g></g><g fill="#0057ff" fill-opacity="0.502"><g transform="translate(61.873051, 26.573073)"><g><path d="M 0.859375 -12.8125 C 0.859375 -13.394531 1.046875 -13.878906 1.421875 -14.265625 C 1.796875 -14.648438 2.25 -14.84375 2.78125 -14.84375 L 5.453125 -14.84375 C 5.972656 -14.84375 6.421875 -14.644531 6.796875 -14.25 C 7.179688 -13.863281 7.375 -13.382812 7.375 -12.8125 L 7.375 -12.171875 L 5.015625 -11 L 5.015625 -12.609375 L 3.203125 -12.609375 L 3.203125 -8.65625 L 7.375 -10.78125 L 7.375 -2.03125 C 7.375 -1.476562 7.179688 -1 6.796875 -0.59375 C 6.421875 -0.195312 5.972656 0 5.453125 0 L 2.78125 0 C 2.25 0 1.796875 -0.191406 1.421875 -0.578125 C 1.046875 -0.972656 0.859375 -1.457031 0.859375 -2.03125 L 0.859375 -3.421875 L 3.203125 -4.59375 L 3.203125 -2.25 L 5.015625 -2.25 L 5.015625 -6.9375 L 0.859375 -4.8125 Z M 0.859375 -12.8125 "/></g></g></g><g fill="#0057ff" fill-opacity="0.502"><g transform="translate(70.097198, 26.573073)"><g><path d="M 5.015625 -6.859375 L 3.203125 -5.890625 L 3.203125 0 L 0.859375 0 L 0.859375 -14.84375 L 3.203125 -14.84375 L 3.203125 -8.515625 L 5.015625 -9.484375 L 5.015625 -14.84375 L 7.375 -14.84375 L 7.375 0 L 5.015625 0 Z M 5.015625 -6.859375 "/></g></g></g><g fill="#0057ff" fill-opacity="0.502"><g transform="translate(78.321346, 26.573073)"><g><path d="M 7.375 -12.8125 L 7.375 -2.03125 C 7.375 -1.457031 7.179688 -0.972656 6.796875 -0.578125 C 6.421875 -0.191406 5.972656 0 5.453125 0 L 2.78125 0 C 2.25 0 1.796875 -0.195312 1.421875 -0.59375 C 1.046875 -1 0.859375 -1.476562 0.859375 -2.03125 L 0.859375 -12.8125 C 0.859375 -13.382812 1.046875 -13.863281 1.421875 -14.25 C 1.796875 -14.644531 2.25 -14.84375 2.78125 -14.84375 L 5.453125 -14.84375 C 5.972656 -14.84375 6.421875 -14.644531 6.796875 -14.25 C 7.179688 -13.863281 7.375 -13.382812 7.375 -12.8125 Z M 5.015625 -2.25 L 5.015625 -12.609375 L 3.203125 -12.609375 L 3.203125 -2.25 Z M 5.015625 -2.25 "/></g></g></g><g fill="#0057ff" fill-opacity="0.502"><g transform="translate(86.545493, 26.573073)"><g><path d="M 5.015625 -8.65625 L 5.015625 -12.609375 L 3.203125 -12.609375 L 3.203125 -7.6875 Z M 3.203125 0 L 0.859375 0 L 0.859375 -14.84375 L 5.453125 -14.84375 C 5.972656 -14.84375 6.421875 -14.644531 6.796875 -14.25 C 7.179688 -13.863281 7.375 -13.382812 7.375 -12.8125 L 7.375 -7.203125 L 3.203125 -5.0625 Z M 3.203125 0 "/></g></g></g><g fill="#ffffff" fill-opacity="1"><g transform="translate(6.804482, 26.042758)"><g><path d="M 5.296875 0 L 2.53125 0 L -0.09375 -14.84375 L 2.296875 -14.84375 L 3.90625 -5.421875 L 5.53125 -14.84375 L 7.921875 -14.84375 Z M 5.296875 0 "/></g></g></g><g fill="#ffffff" fill-opacity="1"><g transform="translate(14.601401, 26.042758)"><g><path d="M 0.859375 0 L 0.859375 -12.8125 C 0.859375 -13.382812 1.046875 -13.863281 1.421875 -14.25 C 1.796875 -14.644531 2.25 -14.84375 2.78125 -14.84375 L 5.453125 -14.84375 C 5.972656 -14.84375 6.421875 -14.644531 6.796875 -14.25 C 7.179688 -13.863281 7.375 -13.382812 7.375 -12.8125 L 7.375 0 L 5.015625 0 L 5.015625 -6.296875 L 3.203125 -5.34375 L 3.203125 0 Z M 3.203125 -7.96875 L 5.015625 -8.921875 L 5.015625 -12.609375 L 3.203125 -12.609375 Z M 3.203125 -7.96875 "/></g></g></g><g fill="#ffffff" fill-opacity="1"><g transform="translate(22.825548, 26.042758)"><g><path d="M 6.1875 0 L 3.734375 -5.546875 L 3.203125 -5.28125 L 3.203125 0 L 0.859375 0 L 0.859375 -14.84375 L 5.453125 -14.84375 C 5.972656 -14.84375 6.421875 -14.644531 6.796875 -14.25 C 7.179688 -13.863281 7.375 -13.382812 7.375 -12.8125 L 7.375 -7.40625 L 5.8125 -6.625 L 8.75 0 Z M 5.015625 -8.859375 L 5.015625 -12.609375 L 3.203125 -12.609375 L 3.203125 -7.90625 Z M 5.015625 -8.859375 "/></g></g></g><g fill="#ffffff" fill-opacity="1"><g transform="translate(31.049695, 26.042758)"><g><path d="M 0.859375 0 L 0.859375 -14.84375 L 3.203125 -14.84375 L 3.203125 0 Z M 0.859375 0 "/></g></g></g><g fill="#ffffff" fill-opacity="1"><g transform="translate(35.108364, 26.042758)"><g><path d="M 6.515625 -12.609375 L 3.203125 -12.609375 L 3.203125 -8.609375 L 6.515625 -10.3125 L 6.515625 -7.6875 L 3.203125 -5.984375 L 3.203125 -2.25 L 6.515625 -2.25 L 6.515625 0 L 0.859375 0 L 0.859375 -12.8125 C 0.859375 -13.382812 1.046875 -13.863281 1.421875 -14.25 C 1.796875 -14.644531 2.25 -14.84375 2.78125 -14.84375 L 6.515625 -14.84375 Z M 6.515625 -12.609375 "/></g></g></g><g fill="#ffffff" fill-opacity="1"><g transform="translate(42.26444, 26.042758)"><g><path d="M 2.671875 0 L 2.671875 -12.609375 L 0.328125 -12.609375 L 0.328125 -14.84375 L 7.375 -14.84375 L 7.375 -12.609375 L 5.015625 -12.609375 L 5.015625 0 Z M 2.671875 0 "/></g></g></g><g fill="#ffffff" fill-opacity="1"><g transform="translate(49.954552, 26.042758)"><g><path d="M 0.859375 0 L 0.859375 -14.84375 L 3.203125 -14.84375 L 3.203125 0 Z M 0.859375 0 "/></g></g></g><g fill="#ffffff" fill-opacity="1"><g transform="translate(54.013223, 26.042758)"><g><path d="M 6.515625 -12.609375 L 3.203125 -12.609375 L 3.203125 -8.609375 L 6.515625 -10.3125 L 6.515625 -7.6875 L 3.203125 -5.984375 L 3.203125 -2.25 L 6.515625 -2.25 L 6.515625 0 L 0.859375 0 L 0.859375 -12.8125 C 0.859375 -13.382812 1.046875 -13.863281 1.421875 -14.25 C 1.796875 -14.644531 2.25 -14.84375 2.78125 -14.84375 L 6.515625 -14.84375 Z M 6.515625 -12.609375 "/></g></g></g><g fill="#ffffff" fill-opacity="1"><g transform="translate(61.169299, 26.042758)"><g><path d="M 0.859375 -12.8125 C 0.859375 -13.394531 1.046875 -13.878906 1.421875 -14.265625 C 1.796875 -14.648438 2.25 -14.84375 2.78125 -14.84375 L 5.453125 -14.84375 C 5.972656 -14.84375 6.421875 -14.644531 6.796875 -14.25 C 7.179688 -13.863281 7.375 -13.382812 7.375 -12.8125 L 7.375 -12.171875 L 5.015625 -11 L 5.015625 -12.609375 L 3.203125 -12.609375 L 3.203125 -8.65625 L 7.375 -10.78125 L 7.375 -2.03125 C 7.375 -1.476562 7.179688 -1 6.796875 -0.59375 C 6.421875 -0.195312 5.972656 0 5.453125 0 L 2.78125 0 C 2.25 0 1.796875 -0.191406 1.421875 -0.578125 C 1.046875 -0.972656 0.859375 -1.457031 0.859375 -2.03125 L 0.859375 -3.421875 L 3.203125 -4.59375 L 3.203125 -2.25 L 5.015625 -2.25 L 5.015625 -6.9375 L 0.859375 -4.8125 Z M 0.859375 -12.8125 "/></g></g></g><g fill="#ffffff" fill-opacity="1"><g transform="translate(69.393446, 26.042758)"><g><path d="M 5.015625 -6.859375 L 3.203125 -5.890625 L 3.203125 0 L 0.859375 0 L 0.859375 -14.84375 L 3.203125 -14.84375 L 3.203125 -8.515625 L 5.015625 -9.484375 L 5.015625 -14.84375 L 7.375 -14.84375 L 7.375 0 L 5.015625 0 Z M 5.015625 -6.859375 "/></g></g></g><g fill="#ffffff" fill-opacity="1"><g transform="translate(77.617594, 26.042758)"><g><path d="M 7.375 -12.8125 L 7.375 -2.03125 C 7.375 -1.457031 7.179688 -0.972656 6.796875 -0.578125 C 6.421875 -0.191406 5.972656 0 5.453125 0 L 2.78125 0 C 2.25 0 1.796875 -0.195312 1.421875 -0.59375 C 1.046875 -1 0.859375 -1.476562 0.859375 -2.03125 L 0.859375 -12.8125 C 0.859375 -13.382812 1.046875 -13.863281 1.421875 -14.25 C 1.796875 -14.644531 2.25 -14.84375 2.78125 -14.84375 L 5.453125 -14.84375 C 5.972656 -14.84375 6.421875 -14.644531 6.796875 -14.25 C 7.179688 -13.863281 7.375 -13.382812 7.375 -12.8125 Z M 5.015625 -2.25 L 5.015625 -12.609375 L 3.203125 -12.609375 L 3.203125 -2.25 Z M 5.015625 -2.25 "/></g></g></g><g fill="#ffffff" fill-opacity="1"><g transform="translate(85.841741, 26.042758)"><g><path d="M 5.015625 -8.65625 L 5.015625 -12.609375 L 3.203125 -12.609375 L 3.203125 -7.6875 Z M 3.203125 0 L 0.859375 0 L 0.859375 -14.84375 L 5.453125 -14.84375 C 5.972656 -14.84375 6.421875 -14.644531 6.796875 -14.25 C 7.179688 -13.863281 7.375 -13.382812 7.375 -12.8125 L 7.375 -7.203125 L 3.203125 -5.0625 Z M 3.203125 0 "/></g></g></g></svg>